<svg width="9" height="7" viewBox="0 0 9 7" fill="none" xmlns="http://www.w3.org/2000/svg">
<path d="M7.24594 6.64036C7.0766 6.5908 6.94883 6.48662 6.86263 6.32779C6.77679 6.16877 6.75471 6.00364 6.79641 5.83241L7.38534 3.4138L1.50273 6.80544C1.35325 6.89162 1.19722 6.91093 1.03466 6.86335C0.872653 6.81595 0.746443 6.71405 0.656027 6.55766C0.56561 6.40127 0.54024 6.24099 0.579915 6.07681C0.620154 5.9128 0.715015 5.7877 0.864499 5.70151L6.74711 2.30988L4.334 1.60371C4.16466 1.55415 4.03606 1.45338 3.94819 1.30141C3.86054 1.14981 3.83757 0.988388 3.87926 0.817159C3.92095 0.645931 4.01443 0.518441 4.1597 0.434689C4.30461 0.35114 4.46173 0.334143 4.63107 0.383699L8.50475 1.51729C8.58942 1.54207 8.66145 1.58027 8.72084 1.63189C8.77988 1.68371 8.83067 1.74642 8.87322 1.82001C8.91577 1.89361 8.94475 1.96889 8.96017 2.04586C8.97525 2.12303 8.97236 2.20442 8.95151 2.29004L7.99254 6.2283C7.95432 6.38526 7.86275 6.50552 7.71784 6.58907C7.57258 6.67282 7.41528 6.68992 7.24594 6.64036Z" fill="black"/>
</svg>
