<svg width="167" height="68" viewBox="0 0 167 68" fill="none" xmlns="http://www.w3.org/2000/svg">
<path d="M8.47791 23.3771C10.894 19.1051 14.483 13.8013 19.2617 7.45639C18.3916 9.89367 17.6861 12.4097 17.153 14.9819L17.152 14.9874C15.1632 24.8606 16.909 32.4019 22.7537 37.2581L22.7537 37.2582L22.7615 37.2645C25.5896 39.5665 29.4093 40.6619 34.1087 40.6619C37.8625 40.6619 42.0528 39.9599 46.6696 38.5803L46.6696 38.5804L46.6811 38.5768L155.202 4.72739L44.3831 59.6156C34.3108 64.5725 25.9618 67 19.3013 67C15.5414 67 12.3544 66.2354 9.70474 64.7474C7.05992 63.2621 4.89547 61.0255 3.22124 57.9936C1.15094 54.1621 0.500341 49.2264 1.38509 43.0909C2.2682 36.9669 4.6248 30.4057 8.47791 23.3771Z" stroke="white" stroke-width="2"/>
</svg>
